<svg viewBox="0 0 1000 1000" xmlns="http://www.w3.org/2000/svg">
<g fill="none" stroke="blue" stroke-width="0.1">
<path d="M 60.9764 28.8474 L 4.614 52.379"/>
<path d="M 4.614 52.379 A 3.3308 3.3308 146.3304 0 1 0.0 49.3054"/>
<path d="M 0.0 49.3054 L 0.0 5.0"/>
<path d="M 0.0 5.0 A 3.3526 3.3526 146.1576 0 1 4.6255 1.8985"/>
<path d="M 4.6255 1.8985 L 60.9648 25.0225"/>
<path d="M 60.9648 25.0225 A 2.0698 2.0698 157.512 0 1 60.9764 28.8474"/>
<rect x="-2.45" y="3.9288" width="4.7" height="4.2" transform="translate(33.4685,41.4469) rotate(157.3392)" />
<g transform="translate(33.4685,41.4469) rotate(157.3392)">
    <text transform="translate(0,6.0288) rotate(-90)" x="0" y="-5" font-family="Times New Roman" font-size="3" stroke="black" dominant-baseline="middle" text-anchor="middle">1</text>
</g>
</g>
<g fill="none" stroke="blue" stroke-width="0.1">
<path d="M 41.1969 11.0853 L 2.0854 96.3152"/>
<path d="M 2.0854 96.3152 A 1.0925 1.0925 167.675 0 1 -1.2e-14 95.8596"/>
<path d="M -1.2e-14 95.8596 L -1.9e-15 61.2937"/>
<path d="M -1.9e-15 61.2937 A 13.3655 13.3655 110.5107 0 1 3.2817 52.5214"/>
<path d="M 3.2817 52.5214 L 40.0005 10.3132"/>
<path d="M 40.0005 10.3132 A 0.7192 0.7192 171.8143 0 1 41.1969 11.0853"/>
<rect x="-2.45" y="4.1043" width="4.7" height="4.2" transform="translate(23.8044,51.8735) rotate(114.6501)" />
<g transform="translate(23.8044,51.8735) rotate(114.6501)">
    <text transform="translate(0,6.2043) rotate(-90)" x="0" y="-5" font-family="Times New Roman" font-size="3" stroke="black" dominant-baseline="middle" text-anchor="middle">2</text>
</g>
<rect x="-2.45" y="3.9288" width="4.7" height="4.2" transform="translate(23.8044,27.3631) rotate(311.0215)" />
<g transform="translate(23.8044,27.3631) rotate(311.0215)">
    <text transform="translate(0,6.0288) rotate(90)" x="0" y="-5" font-family="Times New Roman" font-size="3" stroke="black" dominant-baseline="middle" text-anchor="middle">1</text>
</g>
</g>
<g fill="none" stroke="blue" stroke-width="0.1">
<path d="M 58.2708 93.7015 L 4.9951 91.3309"/>
<path d="M 4.9951 91.3309 A 5.2274 5.2274 133.7261 0 1 -6.7e-15 86.1086"/>
<path d="M -6.7e-15 86.1086 L -5.6e-16 7.1222"/>
<path d="M -5.6e-16 7.1222 A 1.556 1.556 162.7135 0 1 2.8373 6.2393"/>
<path d="M 2.8373 6.2393 L 60.4286 89.8067"/>
<path d="M 60.4286 89.8067 A 2.4863 2.4863 153.5604 0 1 58.2708 93.7015"/>
<rect x="-2.45" y="4.1043" width="4.7" height="4.2" transform="translate(32.3874,46.9954) rotate(55.4269)" />
<g transform="translate(32.3874,46.9954) rotate(55.4269)">
    <text transform="translate(0,6.2043) rotate(90)" x="0" y="-5" font-family="Times New Roman" font-size="3" stroke="black" dominant-baseline="middle" text-anchor="middle">2</text>
</g>
</g>
</svg>