<svg viewBox="0 0 1000 1000" xmlns="http://www.w3.org/2000/svg">
<g fill="none" stroke="blue" stroke-width="0.1" transform="scale(1, -1) translate(0, -100%)">
<path d="M 49.0954 15.6932 L 3.8308 53.6609"/>
<path d="M 3.8308 53.6609 A 2.3321 2.3321 154.9949 0 1 3.2e-15 51.8742"/>
<path d="M 3.2e-15 51.8742 L 3.1e-16 5.0"/>
<path d="M 3.1e-16 5.0 A 3.9581 3.9581 141.634 0 1 4.8665 1.1475"/>
<path d="M 4.8665 1.1475 L 48.0597 11.3325"/>
<path d="M 48.0597 11.3325 A 2.507 2.507 153.3712 0 1 49.0954 15.6932"/>
<rect x="-2.45" y="3.904" width="4.7" height="4.2" transform="translate(27.0729,35.4761) rotate(140.0103)" />
<g transform="translate(27.0729,35.4761) rotate(140.0103)">
                    <text transform="translate(0,6.004) rotate(-90)" x="0" y="-5" font-family="Times New Roman" font-size="3" stroke="black" dominant-baseline="middle" text-anchor="middle">1</text>
                </g>
                
</g>
<g fill="none" stroke="blue" stroke-width="0.1" transform="scale(1, -1) translate(0, -100%)">
<path d="M 52.2796 45.029 L 4.0639 79.5878"/>
<path d="M 4.0639 79.5878 A 2.5679 2.5679 152.8156 0 1 1.7e-15 77.5006"/>
<path d="M 1.7e-15 77.5006 L 1.3e-16 6.2404"/>
<path d="M 1.3e-16 6.2404 A 2.5498 2.5498 152.9799 0 1 4.0471 4.1765"/>
<path d="M 4.0471 4.1765 L 52.2964 39.1801"/>
<path d="M 52.2964 39.1801 A 3.6055 3.6055 144.2045 0 1 52.2796 45.029"/>
<rect x="-2.45" y="3.904" width="4.7" height="4.2" transform="translate(28.6018,20.7498) rotate(35.9599)" />
<g transform="translate(28.6018,20.7498) rotate(35.9599)">
                    <text transform="translate(0,6.004) rotate(90)" x="0" y="-5" font-family="Times New Roman" font-size="3" stroke="black" dominant-baseline="middle" text-anchor="middle">1</text>
                </g>
                
</g>
</svg>