<svg width="200" height="200" viewBox="0 0 190 190" xmlns="http://www.w3.org/2000/svg"
    style="background: black">
    <g class="hub" fill="none" stroke="blue" stroke-width="0.1"
        transform="translate(108, 68) scale(10, 10)">
        <path
            d="M -1.21602043309125 9.32486807608813 L 2.84731689935336 7.91799575680612 L 2.35654748565033 6.50055250130219 L -0.714579567941523 7.56388623099208 Q -0.670856682824117 7.69016693816415 -0.77079281978181 7.77888715128856 Q -0.870728956739502 7.86760736441297 -0.990939649673462 7.80923016859812 Q -1.11115034260742 7.75085297278328 -1.10321948680764 7.61745278832632 Q -1.09528863100785 7.48405260386936 -0.969007923835784 7.44032971875196 L 5.0570158363966 5.35390535129582 L 5.22060564096428 5.8263864364638 Q 5.25332360187781 5.9208826534974 5.34781981891141 5.88816469258386 Q 6.29278198924736 5.56098508344851 5.96560238011201 4.61602291311256 Q 5.6711407318902 3.7655569598102 4.82067477858784 4.06001860803201 L -0.471113375293512 5.89222441918998 Q -0.990842568978288 6.07217320421442 -1.17079135400273 5.55244401052965 Q -1.35074013902717 5.03271481684487 -0.831010945342398 4.85276603182043 L 4.46077720853895 3.02056022066246 Q 5.31124316184131 2.72609857244065 5.0167815136195 1.87563261913829 Q 4.68960190448414 0.930670448802331 3.74463973414819 1.25785005793768 Q 3.65014351711459 1.29056801885122 3.68286147802813 1.38506423588481 L 3.84645128259581 1.85754532105279 L -0.903873547683042 3.5022772161762 Q -1.03015425485511 3.5460001012936 -1.11887446797952 3.44606396433591 Q -1.20759468110393 3.34612782737822 -1.14921748528909 3.22591713444426 Q -1.09084028947424 3.1057064415103 -0.957440105017286 3.11363729731008 Q -0.824039920560327 3.12156815310987 -0.780317035442921 3.24784886028194 L 1.01511108819539 2.62620760292477 L 0.295315948097622 0.547290828185669 Q 0.071200775225261 -0.1 -0.613790485277308 -0.1 L -2.81379048527731 -0.1 L -2.81379048527731 1.8 Q -2.68015475769345 1.8 -2.62901457877505 1.92346331352698 Q -2.57787439985665 2.04692662705396 -2.67236912904 2.14142135623731 Q -2.76686385822334 2.23591608542065 -2.89032717175033 2.18477590650226 Q -3.01379048527731 2.13363572758386 -3.01379048527731 2 L -3.01379048527731 -3.027 L -2.51379048527731 -3.027 Q -2.41379048527731 -3.027 -2.41379048527731 -3.127 Q -2.41379048527731 -4.127 -3.41379048527731 -4.127 Q -4.31379048527731 -4.127 -4.31379048527731 -3.227 L -4.31379048527731 2.373 Q -4.31379048527731 2.923 -4.86379048527731 2.923 Q -5.41379048527731 2.923 -5.41379048527731 2.373 L -5.41379048527731 -3.227 Q -5.41379048527731 -4.127 -6.31379048527731 -4.127 Q -7.31379048527731 -4.127 -7.31379048527731 -3.127 Q -7.31379048527731 -3.027 -7.21379048527731 -3.027 L -6.71379048527731 -3.027 L -6.71379048527731 3.35 Q -6.71379048527731 3.48363572758386 -6.83725379880429 3.53477590650226 Q -6.96071711233127 3.58591608542066 -7.05521184151462 3.49142135623731 Q -7.14970657069796 3.39692662705396 -7.09856639177957 3.27346331352698 Q -7.04742621286117 3.15 -6.91379048527731 3.15 L -6.91379048527731 -0.1 L -8.41379048527731 -0.1 L -8.41379048527731 4.2 Q -8.41379048527731 6.2 -6.41379048527731 6.2 L -5.02823854924347 6.2 Q -4.41444806396617 6.2 -4.21362833290214 6.7800087890992 L -3.76030399203386 8.08930295368692 Q -3.10594477376316 9.97922729435883 -1.21602043309125 9.32486807608813 " />
        <text transform="rotate(35.4512)" x="0" y="6.2195" font-family="Times New Roman"
            font-size="3" stroke="green" text-anchor="middle">52</text>
        <g class="hitboxes" stroke="red">
            <rect x="-8.4638" y="-0.35" width="8.4638" height="6.7" transform="rotate(0)" />
            <rect x="-7.5638" y="-4.377" width="5.4" height="4.127" transform="rotate(0)" />
            <rect x="0.0" y="-0.35" width="8.4638" height="6.7" transform="rotate(70.9023)" />
            <rect x="2.1638" y="-4.377" width="5.4" height="4.127" transform="rotate(70.9023)" />
        </g>
    </g>
</svg>