<svg viewBox="0 -100 1000 1000" xmlns="http://www.w3.org/2000/svg">
<g class="face" fill="none" stroke="blue" stroke-width="0.1">
<path d="M 27.2946490112026 -2.88386227264502 L 3.71137285271067 -75.0147382733479 Q 3.58462756626217 -75.4023963951054 3.18185573613218 -75.3382244397415 Q 2.77908390600219 -75.2740524843777 2.77908391538326 -74.8662005663958 L 2.77908555198046 -3.71345956369815 Q 2.77908562098401 -0.713459563698152 5.77801181460455 -0.633199453950967 L 25.228011823913 -0.112660089344225 Q 26.3242586029939 -0.083321292348759 26.9798512684524 -0.962420844533489 Q 27.6354439339109 -1.84152039671822 27.2946490112026 -2.88386227264502 " />
<g class="hitboxes">
<path d="M 29.6182724732959 1.00519429755916 L 1.779083702014 -84.1426477463641 L 1.77908564337785 0.260135551200367 L 29.6182724732959 1.00519429755916" />
</g>
<rect x="-2.504" y="-6.7676" width="4.754" height="2.754" transform="translate(19.1344,-31.5128) rotate(-108.1052)" />
<text transform="translate(19.1344,-31.5128) rotate(-108.1052)" x="0" y="-2.0406" font-family="Times New Roman" font-size="3" stroke="black" dominant-baseline="middle" text-anchor="middle">2</text>
<rect x="-2.504" y="-8.4061" width="4.754" height="2.754" transform="translate(1.8e-06,-45.4122) rotate(-270.0)" />
<text transform="translate(1.8e-06,-45.4122) rotate(-270.0)" x="0" y="-3.6791" font-family="Times New Roman" font-size="3" stroke="black" dominant-baseline="middle" text-anchor="middle">1</text>
</g>
<g class="face" fill="none" stroke="blue" stroke-width="0.1">
<path d="M 45.4328960238651 -3.03245213322255 L 4.74161613201127 -61.599412840774 Q 4.34764646482683 -62.1664533978487 3.68875691402713 -61.9600274986113 Q 3.02986736322743 -61.7536015993739 3.02986735119075 -61.0631328513273 L 3.02986646464627 -10.2076495514143 Q 3.0298664123484 -7.20764955141434 5.99646104804311 -6.76120104658166 L 44.178050116693 -1.01518062750187 Q 45.0195046958536 -0.888548517327212 45.4689633563026 -1.61109153519187 Q 45.9184220167516 -2.33363455305652 45.4328960238651 -3.03245213322255 " />
<g class="hitboxes">
<path d="M 49.2891487592191 0.765258898497353 L 2.0298674591317 -67.2550264875971 L 2.02986639734294 -6.34688095912226 L 49.2891487592191 0.765258898497353" />
</g>
<rect x="-2.504" y="-8.4061" width="4.754" height="2.754" transform="translate(25.4619,-36.6473) rotate(-124.7909)" />
<text transform="translate(25.4619,-36.6473) rotate(-124.7909)" x="0" y="-3.6791" font-family="Times New Roman" font-size="3" stroke="black" dominant-baseline="middle" text-anchor="middle">1</text>
<rect x="-2.504" y="-8.6569" width="4.754" height="2.754" transform="translate(-6.1e-06,-40.4791) rotate(-270.0)" />
<text transform="translate(-6.1e-06,-40.4791) rotate(-270.0)" x="0" y="-3.9299" font-family="Times New Roman" font-size="3" stroke="black" dominant-baseline="middle" text-anchor="middle">3</text>
</g>
<g class="face" fill="none" stroke="blue" stroke-width="0.1">
<path d="M 26.8678014120259 -14.4793406725608 L 2.16730247866049 -82.2968629507904 Q 2.01531785238453 -82.7141509094759 1.57796906926622 -82.6369847964918 Q 1.14062028614791 -82.5598186835077 1.14062027608705 -82.1157144535254 L 1.14061849458139 -3.47680294031926 Q 1.14061847034652 -2.40703145757858 2.03106430047294 -1.81414255660666 Q 2.92151013059936 -1.22125365563475 3.90851614658813 -1.6338432212895 L 25.1265858266671 -10.5034488888556 Q 27.8944835466366 -11.6604891698258 26.8678014120259 -14.4793406725608 " />
<g class="hitboxes">
<path d="M 29.1607215544348 -11.1059485852485 L 0.140620472445647 -90.7833412141806 L 0.140618392594754 1.02507348031056 L 29.1607215544348 -11.1059485852485" />
</g>
<rect x="-2.504" y="-7.8444" width="4.754" height="2.754" transform="translate(14.9713,-53.6217) rotate(-110.0126)" />
<text transform="translate(14.9713,-53.6217) rotate(-110.0126)" x="0" y="-3.1174" font-family="Times New Roman" font-size="3" stroke="black" dominant-baseline="middle" text-anchor="middle">4</text>
<rect x="-2.504" y="-6.7676" width="4.754" height="2.754" transform="translate(4.9e-07,-33.1544) rotate(-270.0)" />
<text transform="translate(4.9e-07,-33.1544) rotate(-270.0)" x="0" y="-2.0406" font-family="Times New Roman" font-size="3" stroke="black" dominant-baseline="middle" text-anchor="middle">2</text>
</g>
<g class="face" fill="none" stroke="blue" stroke-width="0.1">
<path d="M 35.8941160208812 -75.3127249841382 L 5.92635478718329 -67.2295270384594 Q 3.02987067183681 -66.4482589861588 3.02987074860182 -63.4482589861588 L 3.02987203365792 -13.2278699349687 Q 3.02987204882089 -12.6352965984848 3.6042138633269 -12.4894383137642 Q 4.17855567783291 -12.3435800290436 4.46129710643795 -12.8643491176636 L 37.3591751402126 -73.4575138537439 Q 37.7637454209171 -74.2026741841727 37.2382540856804 -74.8681062893983 Q 36.7127627504438 -75.5335383946241 35.8941160208812 -75.3127249841383 " />
<g class="hitboxes">
<path d="M 40.7825212758477 -77.6670119682351 L 2.02987065223593 -67.2142676518478 L 2.02987221118134 -6.29020017739225 L 40.7825212758477 -77.6670119682351" />
</g>
<rect x="-2.504" y="-8.6569" width="4.754" height="2.754" transform="translate(-1.5e-06,-32.8155) rotate(-270.0)" />
<text transform="translate(-1.5e-06,-32.8155) rotate(-270.0)" x="0" y="-3.9299" font-family="Times New Roman" font-size="3" stroke="black" dominant-baseline="middle" text-anchor="middle">3</text>
<rect x="-2.504" y="-7.8444" width="4.754" height="2.754" transform="translate(20.8733,-38.4457) rotate(-61.5011)" />
<text transform="translate(20.8733,-38.4457) rotate(-61.5011)" x="0" y="-3.1174" font-family="Times New Roman" font-size="3" stroke="black" dominant-baseline="middle" text-anchor="middle">4</text>
</g>
</svg>